<svg id="svg" version="1.1" xmlns="http://www.w3.org/2000/svg" xmlns:xlink="http://www.w3.org/1999/xlink" width="400" height="437.8223495702006" viewBox="0, 0, 400,437.8223495702006"><g id="svgg"><path id="path0" d="M207.791 5.793 C 207.026 7.471,206.400 9.017,206.400 9.228 C 206.400 9.438,206.229 9.923,206.019 10.305 C 205.810 10.687,205.345 11.720,204.986 12.600 C 204.627 13.480,204.164 14.519,203.957 14.909 C 203.751 15.299,203.207 16.649,202.749 17.909 C 202.291 19.169,201.423 21.280,200.819 22.600 C 200.216 23.920,199.442 25.720,199.099 26.600 C 198.206 28.891,195.624 35.119,194.787 37.000 C 194.395 37.880,192.688 41.930,190.994 46.000 C 189.300 50.070,187.596 54.120,187.207 55.000 C 186.818 55.880,186.098 57.590,185.607 58.800 C 183.195 64.751,181.030 69.842,180.757 70.210 C 180.589 70.435,180.151 71.515,179.783 72.610 C 179.042 74.815,178.368 76.423,175.625 82.528 C 174.951 84.028,174.400 85.406,174.400 85.591 C 174.400 85.962,172.231 91.002,171.601 92.095 C 171.380 92.477,171.200 92.989,171.200 93.234 C 171.200 93.669,171.027 94.085,168.807 99.000 C 168.210 100.320,167.442 102.120,167.099 103.000 C 166.180 105.357,163.636 111.475,162.524 114.000 C 161.276 116.831,161.158 117.115,159.426 121.400 C 158.625 123.380,157.797 125.313,157.585 125.695 C 157.373 126.077,157.200 126.575,157.200 126.803 C 157.200 127.031,156.678 128.338,156.040 129.708 C 153.826 134.465,152.800 136.824,152.800 137.161 C 152.800 137.480,151.796 139.877,149.935 144.000 C 148.509 147.161,148.095 148.140,146.977 151.000 C 145.652 154.390,145.223 155.407,143.632 158.928 C 142.955 160.428,142.400 161.751,142.400 161.867 C 142.400 161.984,142.154 162.646,141.853 163.340 C 139.919 167.802,138.800 170.548,138.800 170.836 C 138.800 171.020,138.149 172.571,137.354 174.285 C 135.484 178.314,134.821 179.867,133.208 184.000 C 132.478 185.870,131.396 188.480,130.804 189.800 C 130.211 191.120,128.953 194.090,128.009 196.400 C 127.064 198.710,126.045 201.123,125.745 201.761 C 125.445 202.400,125.200 203.079,125.200 203.270 C 125.200 203.461,124.678 204.738,124.040 206.108 C 119.756 215.309,119.618 214.484,125.800 216.564 C 144.340 222.804,171.084 224.768,191.600 221.396 C 193.470 221.089,195.540 220.761,196.200 220.667 C 198.346 220.361,206.796 218.039,208.219 217.364 C 210.003 216.517,210.443 216.875,211.602 220.112 C 212.091 221.481,212.809 223.320,213.195 224.200 C 214.158 226.389,216.758 232.689,217.405 234.400 C 218.345 236.883,221.643 244.949,222.433 246.696 C 222.855 247.628,223.200 248.516,223.200 248.669 C 223.200 248.822,223.533 249.679,223.940 250.574 C 224.347 251.468,225.005 253.010,225.403 254.000 C 225.800 254.990,226.547 256.734,227.062 257.875 C 227.578 259.017,228.000 260.069,228.000 260.215 C 228.000 260.360,228.264 261.046,228.586 261.740 C 228.909 262.433,229.800 264.658,230.567 266.685 C 231.335 268.712,232.394 271.322,232.923 272.485 C 233.451 273.648,234.470 276.040,235.188 277.800 C 235.906 279.560,236.729 281.540,237.017 282.200 C 238.429 285.434,238.800 286.339,238.800 286.550 C 238.800 286.675,239.238 287.728,239.774 288.889 C 241.317 292.232,244.400 299.743,244.400 300.159 C 244.400 300.367,244.956 301.721,245.635 303.168 C 247.125 306.344,247.254 306.648,248.616 310.200 C 249.489 312.476,252.671 320.147,256.663 329.600 C 256.988 330.370,257.441 331.450,257.669 332.000 C 258.493 333.985,259.295 335.813,259.636 336.481 C 259.826 336.855,260.628 338.835,261.417 340.881 C 262.206 342.926,263.010 344.960,263.203 345.400 C 263.396 345.840,264.034 347.280,264.620 348.600 C 265.207 349.920,266.581 353.250,267.674 356.000 C 268.766 358.750,269.904 361.540,270.201 362.200 C 270.498 362.860,271.010 364.030,271.339 364.800 C 271.667 365.570,272.671 367.896,273.568 369.969 C 274.466 372.042,275.200 374.031,275.200 374.389 C 275.200 374.747,275.356 375.211,275.547 375.420 C 276.010 375.928,280.000 385.029,280.000 385.579 C 280.000 385.816,280.174 386.323,280.386 386.705 C 280.598 387.087,281.148 388.300,281.608 389.400 C 282.823 392.307,283.223 393.257,283.798 394.600 C 284.081 395.260,284.716 396.790,285.209 398.000 C 285.702 399.210,286.500 401.100,286.983 402.200 C 287.465 403.300,288.183 405.010,288.578 406.000 C 289.775 409.002,290.193 409.981,292.563 415.350 C 293.133 416.642,293.600 417.875,293.600 418.089 C 293.600 418.304,293.888 419.136,294.241 419.940 C 294.593 420.743,295.034 421.760,295.220 422.200 C 295.406 422.640,296.107 424.207,296.779 425.683 C 297.450 427.159,298.000 428.554,298.000 428.783 C 298.000 429.070,311.941 429.200,342.594 429.200 L 387.188 429.200 386.336 427.100 C 385.868 425.945,385.245 424.336,384.952 423.523 C 384.660 422.711,383.786 420.673,383.010 418.994 C 382.235 417.315,381.599 415.820,381.598 415.671 C 381.596 415.522,381.364 414.950,381.082 414.400 C 380.800 413.850,380.246 412.500,379.851 411.400 C 379.456 410.300,378.888 408.860,378.588 408.200 C 376.217 402.985,375.600 401.558,375.600 401.291 C 375.600 400.964,373.621 396.064,372.400 393.369 C 371.994 392.472,370.736 389.502,369.606 386.769 C 368.476 384.036,367.395 381.440,367.204 381.000 C 367.013 380.560,365.745 377.500,364.386 374.200 C 361.375 366.888,356.069 354.097,355.592 353.000 C 355.400 352.560,354.864 351.300,354.400 350.200 C 353.936 349.100,353.404 347.840,353.218 347.400 C 350.842 341.783,348.677 336.504,347.887 334.400 C 347.350 332.970,346.243 330.374,345.427 328.631 C 344.611 326.888,343.667 324.638,343.329 323.631 C 342.991 322.624,342.360 320.990,341.928 320.000 C 341.496 319.010,340.873 317.570,340.544 316.800 C 340.215 316.030,339.789 315.040,339.597 314.600 C 338.586 312.283,333.925 301.048,333.582 300.102 C 333.363 299.496,333.019 298.640,332.817 298.200 C 331.037 294.313,330.000 291.892,330.000 291.623 C 330.000 291.341,329.449 289.959,327.918 286.400 C 326.896 284.024,326.344 282.730,325.831 281.506 C 325.150 279.879,325.303 280.245,320.222 268.150 C 317.900 262.622,316.000 257.894,316.000 257.644 C 316.000 257.394,315.826 256.877,315.614 256.495 C 315.402 256.113,314.852 254.900,314.393 253.800 C 313.934 252.700,313.230 251.170,312.828 250.400 C 312.426 249.630,311.867 248.280,311.585 247.400 C 311.304 246.520,309.122 241.210,306.737 235.600 C 304.352 229.990,302.401 225.237,302.400 225.039 C 302.400 224.840,301.971 223.760,301.446 222.639 C 300.921 221.517,300.101 219.700,299.624 218.600 C 299.147 217.500,298.597 216.240,298.403 215.800 C 298.209 215.360,297.925 214.550,297.772 214.000 C 297.619 213.450,297.067 212.111,296.547 211.025 C 296.026 209.939,295.600 208.904,295.600 208.726 C 295.600 208.548,295.086 207.277,294.459 205.901 C 293.831 204.525,292.728 201.960,292.008 200.200 C 290.711 197.029,289.854 194.944,289.214 193.400 C 289.032 192.960,288.480 191.610,287.989 190.400 C 287.498 189.190,286.601 187.118,285.996 185.795 C 285.391 184.472,284.610 182.547,284.260 181.516 C 283.910 180.485,283.273 178.867,282.845 177.921 C 280.047 171.741,279.600 170.722,279.600 170.525 C 279.600 170.245,276.196 162.044,274.950 159.325 C 274.428 158.183,274.000 157.139,274.000 157.003 C 274.000 156.867,273.668 156.001,273.262 155.078 C 272.856 154.155,272.030 152.140,271.426 150.600 C 270.287 147.694,269.942 146.885,268.273 143.200 C 267.725 141.990,266.614 139.290,265.805 137.200 C 264.996 135.110,264.002 132.666,263.597 131.769 C 262.899 130.223,260.210 123.772,257.524 117.200 C 256.850 115.550,255.984 113.480,255.600 112.600 C 254.699 110.538,252.106 104.265,251.300 102.200 C 250.712 100.694,250.055 99.184,248.046 94.722 C 247.581 93.689,247.200 92.667,247.200 92.450 C 247.200 92.233,246.649 90.828,245.975 89.328 C 245.301 87.828,244.599 86.240,244.416 85.800 C 244.233 85.360,242.962 82.300,241.593 79.000 C 240.224 75.700,238.856 72.433,238.552 71.740 C 238.248 71.046,238.000 70.298,238.000 70.076 C 238.000 69.855,237.573 68.802,237.051 67.737 C 236.048 65.687,234.193 61.399,233.013 58.400 C 232.087 56.047,231.806 55.371,230.822 53.122 C 230.370 52.089,230.000 51.133,230.000 50.997 C 230.000 50.861,229.563 49.817,229.029 48.675 C 228.073 46.631,224.821 38.817,221.339 30.200 C 218.922 24.218,219.056 24.534,217.650 21.508 C 216.963 20.028,216.400 18.683,216.400 18.519 C 216.400 18.226,212.261 8.226,210.777 4.931 C 209.622 2.367,209.311 2.457,207.791 5.793 " stroke="none" fill="#93210e" fill-rule="evenodd"></path><path id="path1" d="M0.000 218.800 L 0.000 437.600 200.000 437.600 L 400.000 437.600 400.000 218.800 L 400.000 0.000 200.000 0.000 L 0.000 0.000 0.000 218.800 M211.250 3.100 C 211.701 4.145,212.169 5.585,212.288 6.300 C 212.407 7.015,212.649 7.600,212.825 7.600 C 213.002 7.600,213.263 8.005,213.406 8.500 C 213.548 8.995,214.125 10.390,214.687 11.600 C 215.989 14.403,216.563 15.761,217.395 18.000 C 217.763 18.990,218.319 20.310,218.632 20.932 C 218.944 21.555,219.200 22.306,219.200 22.600 C 219.200 22.894,219.462 23.645,219.782 24.268 C 221.037 26.713,223.062 31.372,224.445 35.000 C 224.948 36.320,225.504 37.571,225.680 37.780 C 225.856 37.989,226.000 38.394,226.000 38.679 C 226.000 38.964,226.554 40.413,227.232 41.899 C 227.910 43.385,228.620 44.960,228.810 45.400 C 229.001 45.840,229.526 47.045,229.978 48.078 C 230.430 49.111,230.800 50.225,230.800 50.554 C 230.800 50.884,230.960 51.252,231.156 51.373 C 231.351 51.494,231.626 52.049,231.766 52.607 C 231.906 53.165,232.480 54.652,233.041 55.911 C 233.602 57.170,234.292 58.740,234.574 59.400 C 234.857 60.060,235.283 61.050,235.522 61.600 C 235.762 62.150,236.343 63.590,236.815 64.800 C 237.287 66.010,237.926 67.478,238.236 68.062 C 238.546 68.646,238.800 69.347,238.800 69.620 C 238.800 69.893,239.420 71.405,240.178 72.981 C 242.099 76.975,244.400 82.763,244.400 83.601 C 244.400 83.987,244.670 84.526,245.000 84.800 C 245.330 85.074,245.600 85.531,245.600 85.817 C 245.600 86.102,245.901 86.935,246.269 87.668 C 246.638 88.400,247.178 89.478,247.469 90.062 C 247.761 90.646,248.000 91.308,248.000 91.534 C 248.000 91.760,248.522 93.082,249.160 94.472 C 249.798 95.862,250.605 97.853,250.953 98.895 C 251.302 99.938,251.750 101.108,251.949 101.495 C 253.017 103.574,256.403 111.556,257.594 114.800 C 257.876 115.570,258.596 117.280,259.192 118.600 C 260.219 120.870,260.719 122.096,262.250 126.100 C 262.608 127.035,263.139 128.340,263.429 129.000 C 263.720 129.660,264.395 131.190,264.930 132.400 C 265.953 134.716,269.233 142.681,270.283 145.400 C 270.962 147.160,271.346 148.050,273.211 152.200 C 274.757 155.639,274.941 156.093,275.803 158.600 C 276.182 159.700,276.900 161.500,277.400 162.600 C 278.604 165.249,279.698 167.797,280.577 170.000 C 282.110 173.839,283.156 176.371,283.800 177.800 C 284.098 178.460,284.644 179.720,285.014 180.600 C 285.384 181.480,285.968 182.830,286.311 183.600 C 287.141 185.461,287.783 187.023,288.611 189.200 C 289.781 192.276,290.558 194.123,292.368 198.128 C 293.045 199.628,293.600 201.017,293.600 201.214 C 293.600 201.412,293.890 202.254,294.244 203.086 C 294.599 203.919,295.114 205.140,295.390 205.800 C 295.666 206.460,296.217 207.720,296.614 208.600 C 297.011 209.480,297.562 210.740,297.838 211.400 C 298.115 212.060,298.624 213.257,298.970 214.060 C 299.317 214.864,299.600 215.616,299.600 215.733 C 299.600 215.849,300.122 217.082,300.760 218.472 C 301.398 219.862,302.205 221.853,302.553 222.895 C 302.902 223.938,303.350 225.108,303.549 225.495 C 303.748 225.883,304.192 226.830,304.535 227.600 C 304.877 228.370,305.604 229.996,306.149 231.213 C 306.695 232.430,307.272 233.948,307.432 234.586 C 307.592 235.224,307.965 236.209,308.259 236.773 C 308.554 237.338,308.796 238.115,308.798 238.500 C 308.799 238.885,308.980 239.200,309.200 239.200 C 309.420 239.200,309.600 239.392,309.600 239.626 C 309.600 239.860,310.062 241.061,310.627 242.296 C 311.192 243.531,312.284 246.174,313.055 248.170 C 313.826 250.167,314.719 252.382,315.039 253.094 C 315.592 254.322,315.949 255.146,317.339 258.400 C 317.667 259.170,318.671 261.496,319.568 263.569 C 320.466 265.642,321.200 267.594,321.200 267.907 C 321.200 268.220,321.457 268.954,321.770 269.538 C 322.277 270.483,323.245 272.572,325.346 277.260 C 325.706 278.064,326.000 278.973,326.000 279.280 C 326.000 279.588,326.150 280.011,326.334 280.220 C 326.518 280.429,326.994 281.500,327.394 282.600 C 327.793 283.700,328.611 285.680,329.211 287.000 C 329.811 288.320,330.874 290.840,331.574 292.600 C 332.274 294.360,333.087 296.340,333.381 297.000 C 333.675 297.660,334.134 298.740,334.400 299.400 C 335.497 302.118,335.975 303.224,338.118 308.000 C 338.660 309.210,339.226 310.650,339.375 311.200 C 339.743 312.557,340.674 314.850,342.216 318.200 C 342.926 319.740,344.169 322.710,344.980 324.800 C 345.791 326.890,346.717 329.182,347.038 329.894 C 347.579 331.094,348.079 332.266,349.131 334.800 C 349.709 336.192,350.602 338.279,351.528 340.400 C 351.960 341.390,352.601 343.053,352.951 344.095 C 353.301 345.138,353.744 346.308,353.935 346.695 C 354.126 347.083,354.563 348.030,354.906 348.800 C 355.250 349.570,356.086 351.415,356.765 352.901 C 357.444 354.387,358.000 355.857,358.000 356.169 C 358.000 356.480,358.253 357.245,358.563 357.868 C 358.873 358.490,359.312 359.450,359.540 360.000 C 359.768 360.550,360.391 361.990,360.924 363.200 C 362.118 365.911,364.663 372.044,365.488 374.200 C 365.825 375.080,366.335 376.340,366.622 377.000 C 368.342 380.962,368.847 382.148,370.199 385.400 C 371.022 387.380,371.967 389.720,372.298 390.600 C 372.963 392.366,373.387 393.354,375.132 397.200 C 375.780 398.630,376.632 400.700,377.024 401.800 C 377.417 402.900,377.863 403.980,378.016 404.200 C 378.169 404.420,378.679 405.730,379.150 407.110 C 379.621 408.491,380.172 409.931,380.375 410.310 C 380.730 410.973,382.418 414.667,383.706 417.600 C 384.044 418.370,384.616 419.900,384.976 421.000 C 385.337 422.100,385.882 423.540,386.188 424.201 C 388.015 428.151,388.322 429.118,387.886 429.554 C 387.563 429.877,375.085 430.000,342.749 430.000 L 298.058 430.000 297.229 428.946 C 296.773 428.366,296.400 427.674,296.400 427.408 C 296.400 427.141,296.148 426.400,295.840 425.761 C 294.830 423.666,293.340 420.255,292.012 417.000 C 291.294 415.240,290.475 413.260,290.190 412.600 C 289.906 411.940,289.360 410.590,288.976 409.600 C 288.592 408.610,287.790 406.720,287.193 405.400 C 286.597 404.080,285.803 402.320,285.430 401.488 C 284.661 399.776,283.251 395.846,282.927 394.512 C 282.809 394.024,282.461 393.417,282.156 393.163 C 281.850 392.910,281.600 392.469,281.600 392.183 C 281.600 391.898,281.347 391.155,281.037 390.532 C 280.727 389.910,280.290 388.950,280.064 388.400 C 279.839 387.850,279.385 386.770,279.055 386.000 C 278.726 385.230,277.887 383.160,277.191 381.400 C 276.495 379.640,275.682 377.660,275.384 377.000 C 275.086 376.340,274.403 374.810,273.867 373.600 C 273.330 372.390,272.511 370.555,272.046 369.522 C 271.581 368.489,271.200 367.375,271.200 367.046 C 271.200 366.716,271.020 366.336,270.800 366.200 C 270.580 366.064,270.400 365.684,270.400 365.354 C 270.400 365.025,270.019 363.911,269.554 362.878 C 269.089 361.845,268.262 360.010,267.715 358.800 C 265.787 354.531,265.600 354.075,265.600 353.653 C 265.600 353.419,265.304 352.546,264.942 351.714 C 264.580 350.881,264.058 349.660,263.783 349.000 C 263.507 348.340,262.835 346.810,262.290 345.600 C 261.745 344.390,260.445 341.330,259.401 338.800 C 258.357 336.270,257.254 333.633,256.951 332.940 C 256.648 332.246,256.400 331.541,256.400 331.371 C 256.400 331.202,255.872 329.969,255.227 328.632 C 253.497 325.043,252.000 321.554,252.000 321.111 C 252.000 320.635,251.205 318.759,248.435 312.699 C 247.756 311.213,247.200 309.842,247.200 309.651 C 247.200 309.303,245.036 304.010,244.360 302.705 C 244.162 302.323,244.000 301.798,244.000 301.537 C 244.000 301.276,243.443 299.879,242.763 298.432 C 240.421 293.452,239.200 290.591,239.200 290.085 C 239.200 289.869,238.931 289.176,238.602 288.546 C 238.274 287.916,237.998 287.130,237.990 286.800 C 237.981 286.470,237.710 285.851,237.387 285.424 C 237.064 284.996,236.800 284.321,236.800 283.924 C 236.800 283.526,236.620 283.200,236.400 283.200 C 236.180 283.200,236.000 283.008,236.000 282.774 C 236.000 282.540,235.539 281.341,234.975 280.109 C 233.891 277.738,233.004 275.433,232.361 273.314 C 232.146 272.607,231.797 271.922,231.585 271.791 C 231.373 271.660,231.200 271.135,231.200 270.625 C 231.200 270.115,230.930 269.474,230.600 269.200 C 230.270 268.926,230.000 268.391,230.000 268.011 C 230.000 267.630,229.589 266.527,229.087 265.560 C 228.584 264.592,227.299 261.550,226.231 258.800 C 225.163 256.050,223.801 252.720,223.204 251.400 C 222.607 250.080,221.527 247.470,220.803 245.600 C 218.879 240.627,218.041 238.546,217.017 236.200 C 216.401 234.790,214.183 229.293,213.304 227.000 C 212.967 226.120,212.446 224.833,212.146 224.140 C 211.846 223.446,211.600 222.708,211.600 222.499 C 211.600 222.153,209.730 218.414,209.371 218.043 C 209.288 217.957,208.990 218.071,208.710 218.297 C 208.429 218.523,207.390 218.892,206.400 219.117 C 205.410 219.342,203.610 219.823,202.400 220.186 C 187.773 224.575,158.481 225.436,143.200 221.926 C 142.210 221.699,140.410 221.365,139.200 221.184 C 137.990 221.004,136.010 220.558,134.800 220.193 C 133.590 219.829,131.880 219.356,131.000 219.143 C 130.120 218.929,129.229 218.584,129.020 218.377 C 128.811 218.170,128.265 218.000,127.806 218.000 C 126.968 218.000,123.913 217.006,121.072 215.810 C 119.260 215.046,119.279 214.248,121.201 210.200 C 121.828 208.880,123.174 205.668,124.191 203.061 C 125.209 200.455,126.206 198.025,126.407 197.661 C 126.608 197.298,127.145 196.100,127.600 195.000 C 128.055 193.900,128.602 192.687,128.814 192.305 C 129.026 191.923,129.200 191.369,129.200 191.074 C 129.200 190.621,130.884 186.514,133.003 181.800 C 133.497 180.700,134.760 177.757,135.578 175.800 C 135.762 175.360,136.487 173.560,137.189 171.800 C 138.803 167.756,139.247 166.718,140.529 164.000 C 141.099 162.790,141.863 160.900,142.226 159.800 C 142.589 158.700,143.247 156.990,143.689 156.000 C 144.648 153.848,146.238 150.263,146.971 148.600 C 147.261 147.940,147.816 146.590,148.204 145.600 C 148.592 144.610,149.154 143.233,149.454 142.540 C 149.754 141.846,150.000 141.184,150.000 141.067 C 150.000 140.951,150.551 139.628,151.225 138.128 C 152.740 134.755,152.981 134.203,153.803 132.200 C 154.428 130.675,154.667 130.122,156.157 126.740 C 156.511 125.936,156.800 125.092,156.800 124.863 C 156.800 124.635,157.520 122.896,158.400 121.000 C 159.280 119.104,160.000 117.455,160.000 117.337 C 160.000 117.218,160.258 116.554,160.573 115.860 C 160.888 115.167,161.805 112.980,162.611 111.000 C 163.416 109.020,164.523 106.410,165.070 105.200 C 166.489 102.060,167.269 100.209,168.774 96.400 C 169.252 95.190,169.832 93.750,170.064 93.200 C 170.295 92.650,170.707 91.660,170.979 91.000 C 171.252 90.340,172.043 88.630,172.737 87.200 C 173.432 85.770,174.000 84.394,174.000 84.142 C 174.000 83.648,175.811 79.166,177.451 75.600 C 179.290 71.602,179.533 71.031,181.028 67.200 C 182.365 63.776,183.307 61.548,185.030 57.740 C 185.343 57.046,185.600 56.281,185.600 56.040 C 185.600 55.798,185.780 55.600,186.000 55.600 C 186.220 55.600,186.401 55.285,186.402 54.900 C 186.404 54.515,186.646 53.738,186.941 53.173 C 187.235 52.609,187.608 51.624,187.768 50.986 C 188.047 49.874,188.343 49.183,191.153 43.099 C 191.839 41.613,192.400 40.216,192.400 39.994 C 192.400 39.771,192.568 39.277,192.774 38.895 C 193.506 37.536,194.400 35.472,194.400 35.140 C 194.400 34.954,194.949 33.587,195.621 32.101 C 199.059 24.497,199.936 22.427,201.005 19.400 C 201.707 17.411,203.189 14.024,205.034 10.194 C 205.565 9.091,206.000 7.954,206.000 7.668 C 206.000 7.382,206.618 5.809,207.374 4.174 C 209.091 0.459,209.999 0.207,211.250 3.100 M200.800 249.806 C 200.800 250.449,194.290 263.275,188.519 274.000 C 187.868 275.210,186.746 277.370,186.025 278.800 C 185.305 280.230,184.487 281.850,184.210 282.400 C 183.932 282.950,183.107 284.480,182.376 285.800 C 181.646 287.120,180.122 290.000,178.990 292.200 C 171.992 305.802,169.840 309.932,169.195 311.000 C 168.796 311.660,167.220 314.630,165.694 317.600 C 159.205 330.225,155.818 336.687,155.003 338.000 C 154.525 338.770,153.934 339.982,153.690 340.693 L 153.247 341.985 193.923 342.093 C 216.296 342.152,234.825 342.346,235.100 342.524 C 235.815 342.986,235.835 428.805,235.120 429.520 C 234.749 429.891,208.846 430.000,120.969 430.000 C -3.592 430.000,5.624 430.185,6.904 427.715 C 9.931 421.876,11.751 418.505,12.347 417.637 C 12.738 417.067,14.008 414.722,15.171 412.426 C 16.333 410.130,17.706 407.583,18.221 406.766 C 18.737 405.949,19.588 404.407,20.113 403.340 C 21.285 400.955,23.992 395.944,24.403 395.400 C 24.569 395.180,25.780 392.930,27.094 390.400 C 28.408 387.870,30.200 384.540,31.076 383.000 C 31.951 381.460,33.630 378.400,34.805 376.200 C 35.981 374.000,37.190 371.750,37.494 371.200 C 38.340 369.665,40.450 365.763,42.468 362.000 C 46.174 355.090,49.143 349.658,49.715 348.742 C 50.258 347.872,51.578 345.417,55.703 337.600 C 56.574 335.950,57.428 334.420,57.600 334.200 C 57.773 333.980,58.807 332.090,59.899 330.000 C 60.990 327.910,62.385 325.300,62.997 324.200 C 63.609 323.100,64.806 320.885,65.656 319.277 C 66.506 317.670,67.741 315.375,68.401 314.177 C 69.060 312.980,70.120 311.055,70.756 309.900 C 71.392 308.745,72.720 306.270,73.707 304.400 C 74.694 302.530,75.871 300.370,76.323 299.600 C 76.775 298.830,78.077 296.400,79.218 294.200 C 80.359 292.000,81.429 290.020,81.596 289.800 C 81.888 289.415,82.549 288.192,87.217 279.400 C 88.385 277.200,89.784 274.689,90.326 273.820 C 90.867 272.951,91.698 271.421,92.171 270.420 C 92.645 269.419,93.835 267.176,94.816 265.436 C 95.797 263.696,97.645 260.276,98.922 257.836 C 102.337 251.312,102.203 251.474,103.934 251.798 C 104.740 251.948,105.580 252.206,105.800 252.370 C 106.450 252.855,110.757 253.856,122.400 256.229 C 144.102 260.653,171.435 258.904,192.000 251.777 C 193.430 251.282,195.860 250.438,197.400 249.902 C 200.316 248.887,200.800 248.873,200.800 249.806 " stroke="none" fill="#fbf6f5" fill-rule="evenodd"></path><path id="path2" d="M207.891 4.283 C 207.322 5.557,206.412 7.789,205.868 9.241 C 205.325 10.694,204.702 12.224,204.484 12.641 C 203.010 15.468,199.558 24.092,199.803 24.337 C 199.998 24.532,201.575 21.081,202.741 17.909 C 203.203 16.649,203.751 15.299,203.957 14.909 C 204.290 14.281,204.971 12.692,205.977 10.200 C 207.683 5.973,209.109 3.007,209.421 3.038 C 210.038 3.099,211.685 6.774,217.113 20.200 C 217.742 21.757,219.104 23.999,218.692 22.800 C 218.342 21.780,214.178 11.645,212.120 6.802 C 209.800 1.341,209.329 1.060,207.891 4.283 M218.833 23.905 C 218.815 24.183,218.975 24.723,219.188 25.105 C 219.402 25.487,220.373 27.780,221.347 30.200 C 224.583 38.245,228.047 46.574,229.029 48.675 C 229.563 49.817,230.000 50.861,230.000 50.997 C 230.000 51.133,230.370 52.089,230.822 53.122 C 231.806 55.371,232.087 56.047,233.013 58.400 C 234.193 61.399,236.048 65.687,237.051 67.737 C 237.573 68.802,238.000 69.855,238.000 70.076 C 238.000 70.298,238.248 71.046,238.552 71.740 C 238.856 72.433,240.224 75.700,241.593 79.000 C 242.962 82.300,244.233 85.360,244.416 85.800 C 244.599 86.240,245.301 87.828,245.975 89.328 C 246.649 90.828,247.200 92.233,247.200 92.450 C 247.200 92.667,247.581 93.689,248.046 94.722 C 250.055 99.184,250.712 100.694,251.300 102.200 C 252.106 104.265,254.699 110.538,255.600 112.600 C 255.984 113.480,256.850 115.550,257.524 117.200 C 260.210 123.772,262.899 130.223,263.597 131.769 C 264.002 132.666,264.996 135.110,265.805 137.200 C 267.867 142.525,270.030 147.303,270.270 147.063 C 270.424 146.909,264.368 132.196,262.146 127.326 C 261.626 126.185,261.200 125.083,261.200 124.876 C 261.200 124.522,260.421 122.608,258.808 119.000 C 258.415 118.120,256.980 114.700,255.619 111.400 C 254.259 108.100,252.875 104.770,252.546 104.000 C 252.216 103.230,251.797 102.240,251.615 101.800 C 251.433 101.360,250.454 99.020,249.439 96.600 C 248.424 94.180,247.595 92.078,247.596 91.928 C 247.598 91.778,247.049 90.428,246.375 88.928 C 244.056 83.767,238.400 70.272,238.400 69.902 C 238.400 69.748,237.959 68.672,237.420 67.511 C 236.882 66.350,235.790 63.780,234.994 61.800 C 234.199 59.820,233.109 57.250,232.574 56.089 C 232.038 54.928,231.600 53.818,231.600 53.621 C 231.600 53.425,231.345 52.755,231.033 52.132 C 230.721 51.510,229.359 48.300,228.005 45.000 C 226.652 41.700,225.387 38.640,225.194 38.200 C 223.967 35.399,223.146 33.442,222.089 30.800 C 220.351 26.458,218.871 23.322,218.833 23.905 M198.794 26.087 C 198.511 26.809,198.049 27.940,197.767 28.600 C 197.324 29.633,188.299 51.189,187.131 54.000 C 186.236 56.155,185.694 57.442,185.278 58.400 C 183.424 62.666,180.000 70.923,180.000 71.127 C 180.000 72.111,181.938 67.850,185.607 58.800 C 186.098 57.590,186.818 55.880,187.207 55.000 C 187.596 54.120,189.300 50.070,190.994 46.000 C 192.688 41.930,194.395 37.880,194.787 37.000 C 195.178 36.120,196.169 33.780,196.987 31.800 C 197.806 29.820,198.757 27.523,199.100 26.696 C 199.444 25.869,199.631 25.098,199.516 24.983 C 199.402 24.868,199.076 25.365,198.794 26.087 M178.400 74.692 C 177.675 76.401,176.234 79.870,175.197 82.400 C 172.959 87.859,171.714 90.745,171.186 91.695 C 170.974 92.077,170.800 92.583,170.800 92.820 C 170.800 93.057,170.374 94.185,169.853 95.326 C 169.332 96.467,168.502 98.390,168.009 99.600 C 167.061 101.927,166.682 102.807,165.030 106.511 C 164.464 107.782,164.000 108.920,164.000 109.040 C 164.000 109.161,162.538 112.711,160.751 116.930 C 158.964 121.148,157.277 125.230,157.002 126.000 C 156.727 126.770,156.134 128.210,155.684 129.200 C 153.035 135.027,152.400 136.484,152.403 136.728 C 152.405 136.974,148.564 146.202,146.782 150.231 C 145.319 153.538,142.000 161.523,142.000 161.734 C 142.000 161.854,141.280 163.504,140.400 165.400 C 139.520 167.296,138.800 169.035,138.800 169.263 C 138.800 169.492,138.543 170.246,138.230 170.940 C 136.742 174.229,135.629 176.788,134.811 178.800 C 133.725 181.473,132.092 185.370,131.377 187.000 C 130.138 189.821,129.602 191.335,129.778 191.511 C 129.992 191.725,131.244 188.977,133.199 184.000 C 134.841 179.821,135.507 178.265,137.354 174.285 C 138.149 172.571,138.800 171.020,138.800 170.836 C 138.800 170.548,139.919 167.802,141.853 163.340 C 142.154 162.646,142.400 161.984,142.400 161.867 C 142.400 161.751,142.955 160.428,143.632 158.928 C 145.223 155.407,145.652 154.390,146.977 151.000 C 148.095 148.140,148.509 147.161,149.935 144.000 C 151.796 139.877,152.800 137.480,152.800 137.161 C 152.800 136.824,153.826 134.465,156.040 129.708 C 156.678 128.338,157.200 127.031,157.200 126.803 C 157.200 126.575,157.373 126.077,157.585 125.695 C 157.797 125.313,158.625 123.380,159.426 121.400 C 161.158 117.115,161.276 116.831,162.524 114.000 C 163.636 111.475,166.180 105.357,167.099 103.000 C 167.442 102.120,168.210 100.320,168.807 99.000 C 171.027 94.085,171.200 93.669,171.200 93.234 C 171.200 92.989,171.380 92.477,171.601 92.095 C 172.231 91.002,174.400 85.962,174.400 85.591 C 174.400 85.406,174.951 84.028,175.625 82.528 C 179.014 74.983,180.184 72.051,179.913 71.779 C 179.805 71.672,179.125 72.983,178.400 74.692 M270.402 147.858 C 270.400 148.279,272.060 152.450,273.427 155.460 C 273.742 156.154,274.000 156.840,274.000 156.985 C 274.000 157.131,274.428 158.183,274.950 159.325 C 276.196 162.044,279.600 170.245,279.600 170.525 C 279.600 170.722,280.047 171.741,282.845 177.921 C 283.273 178.867,283.910 180.485,284.260 181.516 C 284.610 182.547,285.391 184.472,285.996 185.795 C 286.601 187.118,287.500 189.190,287.996 190.400 C 288.491 191.610,289.156 193.230,289.475 194.000 C 290.376 196.177,290.622 196.778,292.015 200.200 C 292.731 201.960,293.831 204.525,294.459 205.901 C 295.086 207.277,295.600 208.548,295.600 208.726 C 295.600 208.904,296.026 209.939,296.547 211.025 C 297.067 212.111,297.619 213.450,297.772 214.000 C 297.925 214.550,298.209 215.360,298.403 215.800 C 298.597 216.240,299.147 217.500,299.624 218.600 C 300.101 219.700,300.921 221.517,301.446 222.639 C 301.971 223.760,302.400 224.840,302.400 225.039 C 302.401 225.237,304.352 229.990,306.737 235.600 C 309.122 241.210,311.304 246.520,311.585 247.400 C 311.867 248.280,312.426 249.630,312.828 250.400 C 313.230 251.170,313.934 252.700,314.393 253.800 C 314.852 254.900,315.402 256.113,315.614 256.495 C 315.826 256.877,316.000 257.394,316.000 257.644 C 316.000 257.894,317.900 262.622,320.222 268.150 C 322.544 273.677,324.633 278.650,324.864 279.200 C 325.095 279.750,325.505 280.740,325.774 281.400 C 326.044 282.060,326.540 283.230,326.876 284.000 C 329.065 289.008,330.000 291.291,330.000 291.623 C 330.000 291.892,331.037 294.313,332.817 298.200 C 333.019 298.640,333.363 299.496,333.582 300.102 C 333.945 301.101,338.754 312.684,339.602 314.600 C 339.797 315.040,340.339 316.300,340.807 317.400 C 341.275 318.500,341.897 319.940,342.189 320.600 C 342.481 321.260,342.996 322.624,343.332 323.631 C 343.669 324.638,344.611 326.888,345.427 328.631 C 346.243 330.374,347.350 332.970,347.887 334.400 C 348.677 336.504,350.842 341.783,353.218 347.400 C 353.404 347.840,353.936 349.100,354.400 350.200 C 354.864 351.300,355.400 352.560,355.592 353.000 C 356.069 354.097,361.375 366.888,364.386 374.200 C 365.745 377.500,367.013 380.560,367.204 381.000 C 367.395 381.440,368.476 384.036,369.606 386.769 C 370.736 389.502,371.994 392.472,372.400 393.369 C 373.621 396.064,375.600 400.964,375.600 401.291 C 375.600 401.558,376.217 402.985,378.588 408.200 C 378.888 408.860,379.449 410.300,379.835 411.400 C 380.222 412.500,380.665 413.580,380.820 413.800 C 380.975 414.020,381.240 414.647,381.408 415.193 C 381.576 415.739,382.322 417.505,383.067 419.117 C 383.811 420.728,384.660 422.711,384.952 423.523 C 385.245 424.336,385.868 425.945,386.336 427.100 L 387.188 429.200 342.594 429.200 C 311.941 429.200,298.000 429.070,298.000 428.783 C 298.000 428.554,297.450 427.159,296.779 425.683 C 296.107 424.207,295.406 422.640,295.220 422.200 C 295.034 421.760,294.593 420.743,294.241 419.940 C 293.888 419.136,293.600 418.304,293.600 418.089 C 293.600 417.875,293.133 416.642,292.563 415.350 C 290.193 409.981,289.775 409.002,288.578 406.000 C 288.183 405.010,287.465 403.300,286.983 402.200 C 286.500 401.100,285.702 399.210,285.209 398.000 C 284.716 396.790,284.081 395.260,283.798 394.600 C 283.223 393.257,282.823 392.307,281.608 389.400 C 281.148 388.300,280.598 387.087,280.386 386.705 C 280.174 386.323,280.000 385.816,280.000 385.579 C 280.000 385.029,276.010 375.928,275.547 375.420 C 275.356 375.211,275.200 374.747,275.200 374.389 C 275.200 374.031,274.466 372.042,273.568 369.969 C 272.671 367.896,271.667 365.570,271.339 364.800 C 271.010 364.030,270.498 362.860,270.201 362.200 C 269.904 361.540,268.766 358.750,267.674 356.000 C 266.581 353.250,265.207 349.920,264.620 348.600 C 264.034 347.280,263.396 345.840,263.203 345.400 C 263.010 344.960,262.206 342.926,261.417 340.881 C 260.628 338.835,259.826 336.855,259.636 336.481 C 259.198 335.622,258.253 333.472,257.403 331.400 C 257.041 330.520,256.591 329.440,256.402 329.000 C 254.564 324.725,249.462 312.405,248.616 310.200 C 247.254 306.648,247.125 306.344,245.635 303.168 C 244.956 301.721,244.400 300.367,244.400 300.159 C 244.400 299.743,241.317 292.232,239.774 288.889 C 239.238 287.728,238.800 286.675,238.800 286.550 C 238.800 286.339,238.429 285.434,237.017 282.200 C 236.729 281.540,235.906 279.560,235.188 277.800 C 234.470 276.040,233.451 273.648,232.923 272.485 C 232.394 271.322,231.335 268.712,230.567 266.685 C 229.800 264.658,228.909 262.433,228.586 261.740 C 228.264 261.046,228.000 260.360,228.000 260.215 C 228.000 260.069,227.578 259.017,227.062 257.875 C 226.547 256.734,225.800 254.990,225.403 254.000 C 225.005 253.010,224.347 251.468,223.940 250.574 C 223.533 249.679,223.200 248.822,223.200 248.669 C 223.200 248.516,222.855 247.628,222.433 246.696 C 221.643 244.949,218.345 236.883,217.405 234.400 C 216.758 232.689,214.158 226.389,213.195 224.200 C 212.809 223.320,212.091 221.481,211.602 220.112 C 210.443 216.875,210.003 216.517,208.219 217.364 C 206.796 218.039,198.346 220.361,196.200 220.667 C 195.540 220.761,193.470 221.089,191.600 221.396 C 171.084 224.768,144.340 222.804,125.800 216.564 C 119.618 214.484,119.756 215.309,124.040 206.108 C 124.678 204.738,125.200 203.431,125.200 203.203 C 125.200 202.975,125.374 202.477,125.587 202.095 C 126.506 200.443,129.611 192.633,129.491 192.273 C 129.376 191.929,124.800 202.341,124.800 202.947 C 124.800 203.074,124.367 204.128,123.838 205.289 C 119.490 214.831,119.530 214.627,121.811 215.605 C 123.472 216.317,127.775 217.665,134.499 219.581 C 148.752 223.642,174.767 224.753,191.200 222.002 C 192.410 221.799,194.480 221.452,195.800 221.229 C 198.837 220.718,205.738 218.903,207.678 218.106 C 209.678 217.284,210.062 217.522,211.141 220.251 C 211.652 221.543,212.223 222.960,212.409 223.400 C 212.952 224.679,216.399 233.210,217.258 235.400 C 217.690 236.500,218.201 237.760,218.394 238.200 C 218.586 238.640,219.644 241.270,220.744 244.045 C 221.844 246.820,223.108 249.880,223.552 250.845 C 223.996 251.810,225.520 255.480,226.939 259.000 C 230.286 267.302,230.712 268.348,232.000 271.400 C 232.464 272.500,233.001 273.760,233.194 274.200 C 233.386 274.640,234.654 277.700,236.012 281.000 C 242.774 297.439,245.608 304.238,247.040 307.460 C 247.348 308.154,247.600 308.896,247.600 309.111 C 247.600 309.325,248.067 310.558,248.637 311.850 C 251.155 317.552,251.045 317.293,254.989 326.800 C 256.677 330.870,258.216 334.560,258.409 335.000 C 258.602 335.440,260.403 339.760,262.413 344.600 C 264.422 349.440,266.888 355.380,267.893 357.800 C 268.899 360.220,269.860 362.470,270.029 362.800 C 270.198 363.130,270.742 364.480,271.238 365.800 C 271.735 367.120,273.750 371.980,275.718 376.600 C 277.685 381.220,279.546 385.707,279.854 386.570 C 280.162 387.434,280.755 388.874,281.171 389.770 C 282.610 392.866,283.704 395.405,284.201 396.800 C 284.475 397.570,286.270 401.890,288.189 406.400 C 290.108 410.910,292.118 415.770,292.656 417.200 C 293.193 418.630,293.997 420.610,294.442 421.600 C 294.888 422.590,295.835 424.750,296.548 426.400 L 297.844 429.400 342.400 429.502 C 366.906 429.558,387.111 429.449,387.299 429.261 C 387.588 428.972,385.757 423.840,383.780 419.400 C 383.286 418.290,380.531 411.681,372.943 393.400 C 371.300 389.440,369.800 385.840,369.610 385.400 C 366.187 377.447,362.000 367.322,362.000 366.998 C 362.000 366.862,361.540 365.727,360.979 364.475 C 360.417 363.224,359.723 361.660,359.435 361.000 C 359.147 360.340,358.712 359.350,358.468 358.800 C 358.223 358.250,357.590 356.630,357.060 355.200 C 356.530 353.770,355.614 351.520,355.025 350.200 C 354.436 348.880,353.795 347.440,353.600 347.000 C 353.404 346.560,352.141 343.500,350.793 340.200 C 349.445 336.900,348.085 333.633,347.771 332.940 C 347.457 332.246,347.200 331.584,347.200 331.469 C 347.200 331.353,346.595 329.940,345.856 328.329 C 345.117 326.718,344.279 324.680,343.994 323.800 C 343.709 322.920,342.851 320.850,342.087 319.200 C 341.324 317.550,340.257 315.030,339.718 313.600 C 338.776 311.105,334.340 300.471,332.738 296.871 C 332.315 295.921,331.421 293.761,330.752 292.071 C 330.083 290.382,328.631 286.840,327.525 284.200 C 326.420 281.560,324.881 277.870,324.107 276.000 C 323.332 274.130,322.372 271.880,321.974 271.000 C 321.276 269.462,317.190 259.565,312.394 247.800 C 311.138 244.720,309.736 241.390,309.276 240.400 C 308.817 239.410,307.556 236.350,306.474 233.600 C 305.392 230.850,304.144 227.790,303.701 226.800 C 302.034 223.071,297.995 213.389,297.997 213.128 C 297.999 212.978,297.445 211.628,296.768 210.128 C 296.090 208.628,295.268 206.770,294.941 206.000 C 294.613 205.230,294.182 204.240,293.981 203.800 C 293.781 203.360,293.086 201.650,292.438 200.000 C 290.901 196.090,284.866 181.514,283.412 178.200 C 282.855 176.932,281.575 173.858,277.664 164.400 C 271.000 148.283,270.407 146.932,270.402 147.858 " stroke="none" fill="#a97474" fill-rule="evenodd"></path><path id="path3" d="M194.600 251.258 C 192.180 252.133,189.660 253.006,189.000 253.197 C 184.490 254.503,182.829 254.930,178.200 255.974 C 175.340 256.618,171.470 257.331,169.600 257.556 C 167.730 257.782,164.310 258.193,162.000 258.469 C 150.631 259.826,133.133 258.881,120.200 256.210 C 110.120 254.129,108.296 253.703,106.360 252.981 C 102.663 251.601,102.686 251.593,101.007 254.863 C 100.178 256.478,99.365 257.980,99.200 258.200 C 99.036 258.420,98.225 259.860,97.398 261.400 C 96.571 262.940,94.631 266.540,93.087 269.400 C 91.543 272.260,89.655 275.770,88.892 277.200 C 88.128 278.630,86.625 281.372,85.552 283.293 C 84.478 285.214,83.600 286.870,83.600 286.972 C 83.600 287.074,82.992 288.202,82.249 289.479 C 81.506 290.755,80.092 293.330,79.106 295.200 C 76.055 300.988,72.160 308.182,71.518 309.215 C 71.181 309.757,69.918 312.090,68.712 314.400 C 65.890 319.802,63.693 323.886,62.793 325.400 C 62.401 326.060,61.368 327.950,60.497 329.600 C 59.626 331.250,57.695 334.850,56.206 337.600 C 54.717 340.350,52.921 343.680,52.214 345.000 C 51.507 346.320,49.396 350.190,47.522 353.600 C 45.648 357.010,43.392 361.150,42.509 362.800 C 41.626 364.450,40.316 366.880,39.597 368.200 C 38.879 369.520,37.656 371.770,36.881 373.200 C 36.105 374.630,34.394 377.780,33.079 380.200 C 31.764 382.620,28.803 388.110,26.500 392.400 C 24.197 396.690,20.827 402.900,19.011 406.200 C 15.328 412.892,13.446 416.369,11.107 420.800 C 10.236 422.450,8.887 424.938,8.111 426.329 C 7.242 427.886,6.841 429.001,7.070 429.230 C 7.297 429.457,51.582 429.562,121.221 429.501 L 235.000 429.400 235.102 386.225 C 235.183 351.949,235.100 342.984,234.702 342.731 C 234.426 342.556,215.885 342.409,193.500 342.406 C 165.387 342.402,152.800 342.270,152.800 341.981 C 152.800 341.750,153.137 340.895,153.549 340.081 C 155.231 336.753,160.715 326.259,165.506 317.200 C 166.495 315.330,168.517 311.460,170.000 308.600 C 171.482 305.740,173.642 301.600,174.800 299.400 C 175.957 297.200,177.804 293.690,178.904 291.600 C 182.373 285.009,185.416 279.184,188.410 273.400 C 190.005 270.320,192.119 266.270,193.108 264.400 C 202.138 247.321,201.994 248.585,194.600 251.258 " stroke="none" fill="#ee8866" fill-rule="evenodd"></path><path id="path4" d="M207.374 4.174 C 206.618 5.809,206.002 7.474,206.005 7.874 C 206.008 8.273,206.627 7.185,207.382 5.456 C 209.341 0.970,209.690 0.918,211.361 4.866 C 212.010 6.398,212.360 6.925,212.246 6.200 C 211.389 0.719,209.360 -0.125,207.374 4.174 M213.857 10.900 C 214.642 12.715,215.698 15.280,216.204 16.600 C 216.710 17.920,218.402 22.011,219.962 25.692 C 221.523 29.372,222.800 32.472,222.800 32.580 C 222.800 32.688,223.260 33.817,223.823 35.088 C 224.385 36.360,225.003 37.760,225.195 38.200 C 225.387 38.640,226.652 41.700,228.005 45.000 C 229.359 48.300,230.721 51.510,231.033 52.132 C 231.345 52.755,231.600 53.425,231.600 53.621 C 231.600 53.818,232.038 54.928,232.574 56.089 C 233.109 57.250,234.199 59.820,234.994 61.800 C 235.790 63.780,236.882 66.350,237.420 67.511 C 237.959 68.672,238.400 69.752,238.400 69.912 C 238.400 70.072,239.748 73.352,241.395 77.201 C 243.042 81.050,244.392 83.908,244.395 83.550 C 244.401 82.760,242.063 76.900,240.178 72.981 C 239.420 71.405,238.800 69.893,238.800 69.620 C 238.800 69.347,238.546 68.646,238.236 68.062 C 237.926 67.478,237.287 66.010,236.815 64.800 C 236.343 63.590,235.762 62.150,235.522 61.600 C 235.283 61.050,234.857 60.060,234.574 59.400 C 234.292 58.740,233.602 57.170,233.041 55.911 C 232.480 54.652,231.906 53.165,231.766 52.607 C 231.626 52.049,231.351 51.494,231.156 51.373 C 230.960 51.252,230.800 50.884,230.800 50.554 C 230.800 50.225,230.430 49.111,229.978 48.078 C 229.526 47.045,229.001 45.840,228.810 45.400 C 228.620 44.960,227.910 43.385,227.232 41.899 C 226.554 40.413,226.000 38.964,226.000 38.679 C 226.000 38.394,225.856 37.989,225.680 37.780 C 225.504 37.571,224.948 36.320,224.445 35.000 C 223.062 31.372,221.037 26.713,219.782 24.268 C 219.462 23.645,219.200 22.894,219.200 22.600 C 219.200 22.306,218.944 21.555,218.632 20.932 C 218.319 20.310,217.763 18.990,217.395 18.000 C 216.563 15.761,215.989 14.403,214.687 11.600 C 214.125 10.390,213.548 8.995,213.406 8.500 C 213.263 8.005,212.985 7.600,212.788 7.600 C 212.591 7.600,213.072 9.085,213.857 10.900 M204.595 11.051 C 204.024 12.343,203.138 14.300,202.628 15.400 C 202.117 16.500,201.384 18.300,200.999 19.400 C 199.950 22.394,199.082 24.446,195.621 32.101 C 194.949 33.587,194.400 34.984,194.400 35.206 C 194.400 35.429,194.232 35.923,194.026 36.305 C 193.294 37.664,192.400 39.728,192.400 40.060 C 192.400 40.246,191.839 41.613,191.153 43.099 C 188.343 49.183,188.047 49.874,187.768 50.986 C 187.608 51.624,187.235 52.609,186.941 53.173 C 186.646 53.738,186.404 54.515,186.402 54.900 C 186.401 55.285,186.220 55.600,186.000 55.600 C 185.780 55.600,185.600 55.798,185.600 56.040 C 185.600 56.281,185.343 57.046,185.030 57.740 C 183.307 61.548,182.365 63.776,181.028 67.200 C 180.213 69.290,179.298 71.540,178.996 72.200 C 175.476 79.895,173.873 83.829,174.055 84.326 C 174.135 84.544,176.518 79.205,179.352 72.461 C 185.029 58.952,185.453 57.944,186.201 56.200 C 186.484 55.540,186.903 54.550,187.131 54.000 C 189.768 47.651,197.325 29.612,197.604 29.000 C 198.525 26.977,202.000 18.455,202.000 18.217 C 202.000 17.966,202.315 17.252,204.982 11.463 C 205.574 10.177,205.963 9.030,205.847 8.913 C 205.730 8.797,205.167 9.758,204.595 11.051 M244.400 84.556 C 244.400 84.696,244.572 85.123,244.782 85.505 C 245.416 86.657,247.600 91.636,247.599 91.928 C 247.598 92.505,250.940 99.994,251.119 99.815 C 251.333 99.600,250.789 98.131,249.140 94.472 C 248.513 93.082,248.000 91.760,248.000 91.534 C 248.000 91.308,247.761 90.646,247.469 90.062 C 247.178 89.478,246.638 88.400,246.269 87.668 C 245.901 86.935,245.600 86.102,245.600 85.817 C 245.600 85.531,245.330 85.074,245.000 84.800 C 244.670 84.526,244.400 84.417,244.400 84.556 M172.577 87.464 C 171.981 88.749,171.266 90.340,170.989 91.000 C 170.711 91.660,170.295 92.650,170.064 93.200 C 169.832 93.750,169.252 95.190,168.774 96.400 C 167.528 99.552,166.809 101.271,166.306 102.299 C 166.064 102.794,165.955 103.289,166.065 103.399 C 166.290 103.623,166.709 102.805,168.011 99.600 C 168.503 98.390,169.332 96.467,169.853 95.326 C 170.374 94.185,170.800 93.057,170.800 92.820 C 170.800 92.583,170.972 92.077,171.182 91.695 C 172.137 89.960,174.006 85.473,173.842 85.309 C 173.742 85.209,173.173 86.178,172.577 87.464 M251.200 100.729 C 251.200 100.994,251.371 101.523,251.581 101.905 C 252.035 102.734,252.401 103.595,255.619 111.400 C 256.980 114.700,258.415 118.120,258.808 119.000 C 260.421 122.608,261.200 124.522,261.200 124.876 C 261.200 125.083,261.626 126.185,262.146 127.326 C 263.311 129.879,265.194 134.356,268.403 142.200 C 269.753 145.500,271.270 149.100,271.773 150.200 C 272.277 151.300,273.461 154.139,274.403 156.508 C 275.346 158.878,276.200 160.734,276.301 160.633 C 276.584 160.349,275.307 156.862,273.211 152.200 C 271.346 148.050,270.962 147.160,270.283 145.400 C 269.233 142.681,265.953 134.716,264.930 132.400 C 262.738 127.440,263.036 128.162,260.894 122.600 C 260.555 121.720,259.789 119.920,259.192 118.600 C 258.596 117.280,257.876 115.570,257.594 114.800 C 256.538 111.922,254.035 106.010,252.965 103.868 C 252.654 103.245,252.394 102.525,252.387 102.268 C 252.370 101.636,251.200 100.119,251.200 100.729 M164.774 105.843 C 164.309 106.920,163.302 109.330,162.537 111.200 C 161.772 113.070,160.888 115.167,160.573 115.860 C 160.258 116.554,160.000 117.218,160.000 117.337 C 160.000 117.455,159.280 119.104,158.400 121.000 C 157.520 122.896,156.800 124.635,156.800 124.863 C 156.800 125.092,156.511 125.936,156.157 126.740 C 154.667 130.122,154.428 130.675,153.803 132.200 C 152.981 134.203,152.740 134.755,151.225 138.128 C 150.551 139.628,150.000 140.951,150.000 141.067 C 150.000 141.184,149.754 141.846,149.454 142.540 C 147.864 146.213,147.493 147.226,147.671 147.405 C 147.855 147.588,152.401 137.323,152.400 136.728 C 152.400 136.484,153.040 135.015,155.684 129.200 C 156.134 128.210,156.727 126.770,157.002 126.000 C 157.277 125.230,158.964 121.148,160.751 116.930 C 162.538 112.711,164.000 109.161,164.000 109.040 C 164.000 108.920,164.474 107.821,165.053 106.597 C 165.632 105.374,165.997 104.264,165.863 104.130 C 165.730 103.996,165.239 104.767,164.774 105.843 M146.751 149.048 C 146.306 150.116,145.811 151.240,143.689 156.000 C 143.247 156.990,142.589 158.700,142.226 159.800 C 141.863 160.900,141.099 162.790,140.529 164.000 C 139.247 166.718,138.803 167.756,137.189 171.800 C 136.487 173.560,135.762 175.360,135.578 175.800 C 134.760 177.757,133.497 180.700,133.003 181.800 C 130.884 186.514,129.200 190.621,129.200 191.074 C 129.200 191.369,129.026 191.923,128.814 192.305 C 128.602 192.687,128.055 193.900,127.600 195.000 C 127.145 196.100,126.608 197.298,126.407 197.661 C 125.867 198.639,122.400 207.474,122.402 207.865 C 122.406 208.397,123.426 206.300,124.606 203.331 C 125.613 200.799,130.204 189.739,131.386 187.000 C 132.220 185.067,133.846 181.173,134.811 178.800 C 135.629 176.788,136.742 174.229,138.230 170.940 C 138.543 170.246,138.800 169.492,138.800 169.263 C 138.800 169.035,139.520 167.296,140.400 165.400 C 141.280 163.504,142.000 161.854,142.000 161.734 C 142.000 161.458,145.788 152.442,146.882 150.115 C 147.333 149.155,147.596 148.263,147.466 148.133 C 147.336 148.003,147.014 148.415,146.751 149.048 M276.524 161.700 C 276.639 161.975,277.480 164.000,278.392 166.200 C 281.380 173.402,282.877 176.980,283.412 178.200 C 284.793 181.348,290.837 195.934,292.445 200.000 C 293.098 201.650,293.907 203.630,294.243 204.400 C 294.579 205.170,295.011 206.160,295.202 206.600 C 295.393 207.040,296.101 208.628,296.775 210.128 C 297.449 211.628,298.000 212.978,298.000 213.128 C 297.999 213.705,302.542 223.991,302.720 223.813 C 302.933 223.600,302.386 222.125,300.740 218.472 C 300.113 217.082,299.600 215.849,299.600 215.733 C 299.600 215.616,299.317 214.864,298.970 214.060 C 298.624 213.257,298.089 212.012,297.781 211.294 C 297.473 210.576,296.947 209.361,296.611 208.594 C 296.006 207.214,295.492 206.018,294.244 203.086 C 293.890 202.254,293.600 201.412,293.600 201.214 C 293.600 201.017,293.045 199.628,292.368 198.128 C 290.558 194.123,289.781 192.276,288.611 189.200 C 288.234 188.210,287.655 186.770,287.323 186.000 C 286.992 185.230,286.488 184.060,286.203 183.400 C 285.919 182.740,285.384 181.480,285.014 180.600 C 284.644 179.720,284.098 178.460,283.800 177.800 C 283.156 176.371,282.110 173.839,280.577 170.000 C 280.182 169.010,279.505 167.390,279.073 166.400 C 278.641 165.410,277.959 163.835,277.558 162.900 C 277.157 161.965,276.713 161.200,276.571 161.200 C 276.430 161.200,276.409 161.425,276.524 161.700 M121.067 210.463 C 119.291 214.288,119.292 215.060,121.072 215.810 C 123.919 217.009,126.969 218.000,127.786 217.992 C 128.234 217.987,127.008 217.444,125.062 216.785 C 119.445 214.883,119.371 214.749,121.566 210.461 C 122.055 209.505,122.366 208.633,122.257 208.524 C 122.148 208.415,121.612 209.287,121.067 210.463 M207.928 218.008 C 205.214 219.624,192.040 222.144,180.616 223.231 C 168.059 224.425,144.651 222.598,134.777 219.653 C 133.360 219.230,131.722 218.776,131.137 218.644 C 130.553 218.512,129.743 218.286,129.337 218.143 C 128.818 217.959,128.718 218.011,129.000 218.318 C 129.220 218.558,130.120 218.929,131.000 219.143 C 131.880 219.356,133.590 219.829,134.800 220.193 C 136.010 220.558,137.990 221.004,139.200 221.184 C 140.410 221.365,142.210 221.699,143.200 221.926 C 158.481 225.436,187.773 224.575,202.400 220.186 C 203.610 219.823,205.410 219.342,206.400 219.117 C 207.390 218.892,208.429 218.523,208.710 218.297 C 208.990 218.071,209.288 217.957,209.371 218.043 C 209.730 218.414,211.600 222.153,211.600 222.499 C 211.600 222.708,211.846 223.446,212.146 224.140 C 212.446 224.833,212.967 226.120,213.304 227.000 C 214.183 229.293,216.401 234.790,217.017 236.200 C 218.041 238.546,218.879 240.627,220.803 245.600 C 221.527 247.470,222.607 250.080,223.204 251.400 C 223.801 252.720,225.163 256.050,226.231 258.800 C 227.299 261.550,228.584 264.592,229.087 265.560 C 229.589 266.527,230.000 267.630,230.000 268.011 C 230.000 268.391,230.270 268.926,230.600 269.200 C 231.184 269.685,231.473 269.206,230.926 268.659 C 230.775 268.508,230.442 267.803,230.186 267.093 C 229.435 265.011,224.433 252.761,223.552 250.845 C 223.108 249.880,221.844 246.820,220.744 244.045 C 219.644 241.270,218.586 238.640,218.394 238.200 C 218.201 237.760,217.690 236.500,217.258 235.400 C 216.524 233.528,213.153 225.174,212.417 223.400 C 212.234 222.960,211.642 221.520,211.102 220.200 C 210.090 217.727,209.308 217.187,207.928 218.008 M302.800 224.648 C 302.800 224.869,303.184 225.845,303.654 226.817 C 304.124 227.790,305.393 230.839,306.475 233.593 C 307.557 236.347,308.817 239.410,309.276 240.400 C 309.736 241.390,311.138 244.720,312.394 247.800 C 317.190 259.565,321.276 269.462,321.974 271.000 C 322.372 271.880,323.332 274.130,324.107 276.000 C 324.881 277.870,326.420 281.560,327.525 284.200 C 328.631 286.840,330.083 290.382,330.752 292.071 C 331.421 293.761,332.315 295.921,332.738 296.871 C 334.340 300.471,338.776 311.105,339.718 313.600 C 340.257 315.030,341.324 317.550,342.087 319.200 C 342.851 320.850,343.709 322.920,343.994 323.800 C 344.279 324.680,345.117 326.718,345.856 328.329 C 346.595 329.940,347.200 331.353,347.200 331.469 C 347.200 331.584,347.457 332.246,347.771 332.940 C 348.085 333.633,349.445 336.900,350.793 340.200 C 352.141 343.500,353.404 346.560,353.600 347.000 C 353.795 347.440,354.436 348.880,355.025 350.200 C 355.614 351.520,356.530 353.770,357.060 355.200 C 357.590 356.630,358.223 358.250,358.468 358.800 C 358.712 359.350,359.147 360.340,359.435 361.000 C 359.723 361.660,360.417 363.224,360.979 364.475 C 361.540 365.727,362.000 366.862,362.000 366.998 C 362.000 367.322,366.358 377.858,369.611 385.400 C 370.041 386.397,375.731 400.109,377.790 405.108 C 378.630 407.148,379.399 408.734,379.501 408.633 C 379.683 408.450,378.505 404.970,378.000 404.200 C 377.856 403.980,377.417 402.900,377.024 401.800 C 376.632 400.700,375.780 398.630,375.132 397.200 C 373.387 393.354,372.963 392.366,372.298 390.600 C 371.967 389.720,371.022 387.380,370.199 385.400 C 368.847 382.148,368.342 380.962,366.622 377.000 C 366.335 376.340,365.825 375.080,365.488 374.200 C 364.663 372.044,362.118 365.911,360.924 363.200 C 360.391 361.990,359.768 360.550,359.540 360.000 C 359.312 359.450,358.873 358.490,358.563 357.868 C 358.253 357.245,358.000 356.480,358.000 356.169 C 358.000 355.857,357.444 354.387,356.765 352.901 C 356.086 351.415,355.250 349.570,354.906 348.800 C 354.563 348.030,354.126 347.083,353.935 346.695 C 353.744 346.308,353.301 345.138,352.951 344.095 C 352.601 343.053,351.960 341.390,351.528 340.400 C 350.174 337.298,349.344 335.339,348.226 332.600 C 347.956 331.940,347.447 330.770,347.095 330.000 C 346.743 329.230,345.791 326.890,344.980 324.800 C 344.169 322.710,342.926 319.740,342.216 318.200 C 340.674 314.850,339.743 312.557,339.375 311.200 C 339.226 310.650,338.660 309.210,338.118 308.000 C 335.975 303.224,335.497 302.118,334.400 299.400 C 334.134 298.740,333.675 297.660,333.381 297.000 C 333.087 296.340,332.274 294.360,331.574 292.600 C 330.874 290.840,329.811 288.320,329.211 287.000 C 328.611 285.680,327.793 283.700,327.394 282.600 C 326.994 281.500,326.518 280.429,326.334 280.220 C 326.150 280.011,326.000 279.588,326.000 279.280 C 326.000 278.973,325.706 278.064,325.346 277.260 C 323.245 272.572,322.277 270.483,321.770 269.538 C 321.457 268.954,321.200 268.220,321.200 267.907 C 321.200 267.594,320.466 265.642,319.568 263.569 C 318.671 261.496,317.667 259.170,317.339 258.400 C 315.949 255.146,315.592 254.322,315.039 253.094 C 314.719 252.382,313.826 250.167,313.055 248.170 C 312.284 246.174,311.192 243.531,310.627 242.296 C 310.062 241.061,309.600 239.860,309.600 239.626 C 309.600 239.392,309.420 239.200,309.200 239.200 C 308.980 239.200,308.799 238.885,308.798 238.500 C 308.796 238.115,308.554 237.338,308.259 236.773 C 307.965 236.209,307.592 235.224,307.432 234.586 C 307.143 233.433,305.703 230.036,304.584 227.868 C 304.263 227.245,303.994 226.525,303.987 226.268 C 303.972 225.690,302.800 224.092,302.800 224.648 M199.581 249.220 C 199.099 249.525,199.119 249.589,199.700 249.594 C 200.502 249.601,200.579 250.081,199.978 251.326 C 199.570 252.170,199.577 252.174,200.178 251.424 C 201.273 250.057,200.832 248.429,199.581 249.220 M196.600 250.214 C 194.985 250.954,195.951 250.955,197.654 250.216 C 198.394 249.894,198.730 249.639,198.400 249.648 C 198.070 249.657,197.260 249.912,196.600 250.214 M193.000 251.414 C 191.385 252.154,192.351 252.155,194.054 251.416 C 194.794 251.094,195.130 250.839,194.800 250.848 C 194.470 250.857,193.660 251.112,193.000 251.414 M102.102 252.100 C 101.427 252.953,97.518 260.400,97.746 260.400 C 97.946 260.400,99.605 257.531,101.563 253.800 C 102.025 252.920,102.807 252.083,103.301 251.940 C 104.176 251.687,104.177 251.679,103.349 251.640 C 102.881 251.618,102.320 251.825,102.102 252.100 M104.800 252.400 C 105.703 252.984,109.605 254.066,110.136 253.880 C 110.391 253.791,109.557 253.480,108.282 253.191 C 107.007 252.901,105.871 252.515,105.758 252.332 C 105.645 252.150,105.248 252.003,104.876 252.006 C 104.293 252.011,104.283 252.066,104.800 252.400 M190.200 252.386 C 189.760 252.569,188.617 252.929,187.661 253.187 C 186.705 253.445,186.016 253.749,186.131 253.864 C 186.357 254.090,188.665 253.425,190.600 252.577 C 191.893 252.011,191.527 251.836,190.200 252.386 M198.857 253.257 C 198.575 253.709,198.432 254.166,198.540 254.273 C 198.647 254.381,198.944 254.078,199.200 253.600 C 199.805 252.470,199.524 252.190,198.857 253.257 M112.000 254.443 C 120.957 256.752,134.545 258.847,139.788 258.726 C 142.193 258.671,142.447 258.622,140.800 258.531 C 132.888 258.097,123.411 256.667,114.574 254.575 C 111.974 253.959,109.663 253.840,112.000 254.443 M180.000 255.049 C 174.407 256.465,169.996 257.171,161.658 257.985 C 157.199 258.419,155.180 258.730,156.636 258.756 C 157.976 258.780,160.496 258.629,162.236 258.420 C 163.976 258.211,167.093 257.843,169.161 257.603 C 172.571 257.206,181.604 255.354,184.600 254.436 C 187.235 253.629,183.798 254.087,180.000 255.049 M197.070 256.928 C 196.454 258.068,194.581 261.610,192.907 264.800 C 191.234 267.990,189.445 271.392,188.932 272.360 C 188.420 273.327,188.000 274.222,188.000 274.349 C 188.000 274.865,189.247 272.709,191.902 267.600 C 193.446 264.630,195.559 260.615,196.599 258.678 C 197.638 256.741,198.422 255.088,198.339 255.006 C 198.257 254.924,197.686 255.789,197.070 256.928 M146.316 259.097 C 147.699 259.175,149.859 259.174,151.116 259.095 C 152.372 259.016,151.240 258.952,148.600 258.953 C 145.960 258.953,144.932 259.018,146.316 259.097 M96.515 262.500 C 95.939 263.251,93.140 268.349,92.166 270.420 C 91.696 271.421,90.867 272.951,90.326 273.820 C 89.784 274.689,88.385 277.200,87.217 279.400 C 82.549 288.192,81.888 289.415,81.596 289.800 C 81.429 290.020,80.359 292.000,79.218 294.200 C 78.077 296.400,76.775 298.830,76.323 299.600 C 75.872 300.370,74.606 302.710,73.509 304.800 C 72.413 306.890,71.355 308.771,71.158 308.980 C 70.961 309.189,70.800 309.544,70.800 309.769 C 70.800 310.639,73.019 306.746,79.106 295.200 C 80.092 293.330,81.506 290.755,82.249 289.479 C 82.992 288.202,83.600 287.074,83.600 286.972 C 83.600 286.870,84.478 285.214,85.552 283.293 C 86.625 281.372,88.128 278.630,88.892 277.200 C 94.302 267.067,96.553 262.934,96.899 262.500 C 97.119 262.225,97.208 262.000,97.098 262.000 C 96.988 262.000,96.725 262.225,96.515 262.500 M231.209 270.676 C 231.204 271.158,231.373 271.660,231.585 271.791 C 231.797 271.922,232.146 272.607,232.361 273.314 C 233.004 275.433,233.891 277.738,234.975 280.109 C 235.539 281.341,236.000 282.540,236.000 282.774 C 236.000 283.008,236.180 283.200,236.400 283.200 C 236.620 283.200,236.800 283.526,236.800 283.924 C 236.800 284.321,237.064 284.996,237.387 285.424 C 237.710 285.851,237.981 286.470,237.990 286.800 C 237.998 287.130,238.274 287.916,238.602 288.546 C 238.931 289.176,239.200 289.869,239.200 290.085 C 239.200 290.602,240.549 293.755,242.757 298.400 C 244.932 302.977,244.089 300.271,241.239 293.531 C 239.720 289.939,237.364 284.300,236.004 281.000 C 231.509 270.098,231.222 269.479,231.209 270.676 M187.232 275.539 C 186.579 276.760,186.714 277.100,187.441 276.063 C 187.793 275.560,187.988 275.054,187.873 274.940 C 187.759 274.825,187.470 275.095,187.232 275.539 M185.623 278.650 C 185.153 279.448,184.852 280.186,184.956 280.289 C 185.059 280.393,185.520 279.740,185.980 278.839 C 187.015 276.811,186.781 276.688,185.623 278.650 M182.400 284.923 C 181.190 287.165,180.136 289.180,180.059 289.400 C 179.743 290.291,181.182 288.029,182.603 285.400 C 183.435 283.860,184.287 282.381,184.496 282.113 C 184.705 281.846,184.814 281.451,184.738 281.237 C 184.662 281.022,183.610 282.681,182.400 284.923 M179.178 291.101 C 178.871 291.705,177.655 293.969,176.476 296.132 C 175.296 298.295,174.404 300.137,174.494 300.227 C 174.583 300.317,175.071 299.627,175.578 298.695 C 178.972 292.451,180.053 290.320,179.904 290.171 C 179.811 290.078,179.484 290.496,179.178 291.101 M173.516 301.912 C 172.604 303.455,168.400 311.722,168.400 311.971 C 168.400 312.466,169.667 310.266,171.940 305.825 C 174.199 301.412,175.030 299.348,173.516 301.912 M244.031 301.505 C 244.014 301.783,244.162 302.323,244.360 302.705 C 245.036 304.010,247.200 309.303,247.200 309.651 C 247.200 309.842,247.756 311.213,248.435 312.699 C 251.205 318.759,252.000 320.635,252.000 321.111 C 252.000 321.554,253.497 325.043,255.227 328.632 C 255.872 329.969,256.400 331.202,256.400 331.371 C 256.400 331.541,256.648 332.246,256.951 332.940 C 257.254 333.633,258.357 336.270,259.401 338.800 C 260.445 341.330,261.745 344.390,262.290 345.600 C 262.835 346.810,263.507 348.340,263.783 349.000 C 264.058 349.660,264.580 350.881,264.942 351.714 C 265.304 352.546,265.600 353.419,265.600 353.653 C 265.600 354.075,265.787 354.531,267.715 358.800 C 268.262 360.010,269.089 361.845,269.554 362.878 C 270.019 363.911,270.400 365.025,270.400 365.354 C 270.400 365.684,270.580 366.064,270.800 366.200 C 271.020 366.336,271.200 366.716,271.200 367.046 C 271.200 367.375,271.585 368.489,272.056 369.522 C 272.527 370.555,273.252 372.190,273.666 373.157 C 274.081 374.123,274.503 374.830,274.604 374.729 C 274.760 374.574,270.944 364.642,270.022 362.800 C 269.856 362.470,268.899 360.220,267.893 357.800 C 266.888 355.380,264.422 349.440,262.413 344.600 C 260.403 339.760,258.602 335.440,258.409 335.000 C 258.216 334.560,256.677 330.870,254.989 326.800 C 251.045 317.293,251.155 317.552,248.637 311.850 C 248.067 310.558,247.600 309.344,247.600 309.153 C 247.600 308.293,244.077 300.745,244.031 301.505 M69.958 311.300 C 69.700 311.795,68.974 313.135,68.345 314.277 C 67.716 315.420,66.506 317.670,65.656 319.277 C 64.806 320.885,63.609 323.100,62.997 324.200 C 62.385 325.300,60.990 327.910,59.899 330.000 C 58.807 332.090,57.773 333.980,57.600 334.200 C 57.428 334.420,56.574 335.950,55.703 337.600 C 51.578 345.417,50.258 347.872,49.715 348.742 C 49.084 349.752,45.231 356.815,42.810 361.400 C 41.997 362.940,40.740 365.243,40.017 366.518 C 39.294 367.793,38.783 368.916,38.880 369.013 C 39.058 369.192,39.280 368.813,42.398 363.000 C 43.342 361.240,45.648 357.010,47.522 353.600 C 49.396 350.190,51.507 346.320,52.214 345.000 C 52.921 343.680,54.717 340.350,56.206 337.600 C 57.695 334.850,59.626 331.250,60.497 329.600 C 61.368 327.950,62.401 326.060,62.793 325.400 C 64.836 321.962,70.887 310.400,70.644 310.400 C 70.525 310.400,70.217 310.805,69.958 311.300 M165.941 316.290 C 165.186 317.780,163.334 321.340,161.824 324.200 C 158.891 329.756,154.778 337.650,153.549 340.081 C 153.137 340.895,152.800 341.750,152.800 341.981 C 152.800 342.271,165.260 342.370,193.300 342.302 L 233.800 342.204 193.521 342.100 L 153.243 341.996 153.688 340.698 C 153.933 339.984,154.525 338.770,155.003 338.000 C 155.481 337.230,157.409 333.630,159.286 330.000 C 161.164 326.370,163.815 321.267,165.177 318.660 C 166.539 316.053,167.577 313.843,167.483 313.750 C 167.389 313.656,166.695 314.799,165.941 316.290 M234.702 342.694 C 235.100 342.976,235.183 351.964,235.102 386.225 L 235.000 429.400 121.221 429.501 C 51.582 429.562,7.297 429.457,7.070 429.230 C 6.841 429.001,7.242 427.886,8.111 426.329 C 8.887 424.938,10.236 422.450,11.107 420.800 C 13.446 416.369,15.328 412.892,19.011 406.200 C 20.827 402.900,24.197 396.690,26.500 392.400 C 28.803 388.110,31.765 382.620,33.082 380.200 C 34.399 377.780,36.251 374.378,37.198 372.640 C 38.144 370.902,38.723 369.600,38.484 369.748 C 38.246 369.895,37.801 370.507,37.496 371.108 C 36.303 373.461,32.587 380.342,31.076 383.000 C 30.200 384.540,28.408 387.870,27.094 390.400 C 25.780 392.930,24.569 395.180,24.403 395.400 C 23.992 395.944,21.285 400.955,20.113 403.340 C 19.588 404.407,18.737 405.949,18.221 406.766 C 17.706 407.583,16.333 410.130,15.171 412.426 C 14.008 414.722,12.738 417.067,12.347 417.637 C 11.751 418.505,9.931 421.876,6.904 427.715 C 5.624 430.185,-3.595 430.000,121.000 430.000 C 216.292 430.000,234.775 429.912,235.153 429.457 C 235.928 428.523,235.580 342.716,234.800 342.503 C 234.354 342.381,234.329 342.430,234.702 342.694 M274.800 375.638 C 274.800 375.879,275.057 376.554,275.370 377.138 C 275.684 377.722,276.507 379.640,277.199 381.400 C 277.890 383.160,278.726 385.230,279.055 386.000 C 279.385 386.770,279.839 387.850,280.064 388.400 C 280.290 388.950,280.727 389.910,281.037 390.532 C 281.347 391.155,281.600 391.898,281.600 392.183 C 281.600 392.469,281.870 392.926,282.200 393.200 C 282.880 393.764,282.966 393.514,282.444 392.495 C 281.622 390.888,280.000 387.230,280.000 386.980 C 280.000 386.569,275.130 375.200,274.954 375.200 C 274.869 375.200,274.800 375.397,274.800 375.638 M282.965 394.600 C 283.265 395.861,284.684 399.827,285.430 401.488 C 285.803 402.320,286.597 404.080,287.193 405.400 C 287.790 406.720,288.592 408.610,288.976 409.600 C 289.360 410.590,289.906 411.940,290.190 412.600 C 290.475 413.260,291.294 415.240,292.012 417.000 C 293.340 420.255,294.830 423.666,295.840 425.761 C 296.148 426.400,296.400 427.141,296.400 427.408 C 296.400 427.674,296.773 428.366,297.229 428.946 L 298.058 430.000 342.749 430.000 C 375.085 430.000,387.563 429.877,387.886 429.554 C 388.322 429.118,388.015 428.151,386.188 424.201 C 385.882 423.540,385.337 422.100,384.976 421.000 C 384.302 418.943,383.939 418.068,381.911 413.600 C 380.135 409.688,379.878 409.189,379.725 409.342 C 379.606 409.460,381.811 414.922,383.785 419.400 C 385.824 424.026,387.587 428.973,387.299 429.261 C 387.111 429.449,366.906 429.558,342.400 429.502 L 297.844 429.400 296.548 426.400 C 295.835 424.750,294.891 422.590,294.451 421.600 C 294.010 420.610,293.343 418.990,292.968 418.000 C 290.549 411.609,282.574 392.954,282.965 394.600 " stroke="none" fill="#ce9b94" fill-rule="evenodd"></path></g></svg>